<svg width="347" height="220" viewBox="0 0 347 220" fill="none" xmlns="http://www.w3.org/2000/svg">
<mask id="mask0_1081_14" style="mask-type:luminance" maskUnits="userSpaceOnUse" x="0" y="0" width="347" height="220">
<path d="M328.752 219.222H18.2247C8.34244 219.222 0.319336 211.184 0.319336 201.283V17.939C0.319336 8.03815 8.34244 0 18.2247 0H328.752C338.634 0 346.657 8.03815 346.657 17.939V201.283C346.657 211.184 338.634 219.222 328.752 219.222Z" fill="white"/>
</mask>
<g mask="url(#mask0_1081_14)">
<path d="M358.456 217.947C358.456 223.936 353.78 228.793 348.016 228.793H-1.03907C-6.80255 228.793 -11.4791 223.936 -11.4791 217.947V-3.65368C-11.4791 -9.64289 -6.80255 -14.4858 -1.03907 -14.4858H348.002C353.765 -14.4858 358.442 -9.62856 358.442 -3.65368V217.947H358.456Z" fill="url(#paint0_linear_1081_14)"/>
</g>
<mask id="mask1_1081_14" style="mask-type:luminance" maskUnits="userSpaceOnUse" x="0" y="0" width="347" height="220">
<path d="M328.752 219.222H18.2247C8.34244 219.222 0.319336 211.184 0.319336 201.283V17.939C0.319336 8.03815 8.34244 0 18.2247 0H328.752C338.634 0 346.657 8.03815 346.657 17.939V201.283C346.657 211.184 338.634 219.222 328.752 219.222Z" fill="white"/>
</mask>
<g mask="url(#mask1_1081_14)">
<g opacity="0.31">
<path d="M87.8443 72.773C87.9587 73.0166 88.0445 73.2458 88.1303 73.4607C88.4306 74.2058 89.5175 74.1485 89.7035 73.3748C89.7321 73.2745 89.7464 73.1885 89.7607 73.0882C93.193 53.0287 99.5858 15.3597 101.702 1.48995C104.062 -13.9989 101.845 -17.9821 101.531 -18.4407L101.373 -18.5409L101.388 -18.5983C98.6991 -22.0227 92.3921 -18.5983 92.3206 -18.5553L54.0214 5.54484L87.8443 72.773Z" fill="white"/>
<path d="M84.884 74.3348L62.2162 28.6707L51.2756 6.46191C40.1062 41.0073 37.0314 104.052 37.0314 104.052C39.1909 104.754 41.4934 104.797 43.5099 103.722L43.6529 103.65L81.3801 83.247C83.6827 81.9718 85.4704 79.5217 85.4704 76.6847C85.4847 76.6703 85.4561 75.3951 84.884 74.3348Z" fill="white"/>
<path d="M34.0852 102.547C34.0852 102.547 36.3305 37.0958 49.4593 2.80829L41.1215 -14.0991C40.1347 -16.105 38.4185 -17.6095 36.2876 -18.3259C35.501 -18.5838 34.7002 -18.7271 33.885 -18.7557C32.512 -18.7987 31.1534 -18.4978 29.8806 -17.8674L-8.59031 1.51874C-10.5925 2.52172 -12.0799 4.25544 -12.7663 6.39035C-13.4671 8.52526 -13.2812 10.7891 -12.2658 12.7951L32.1688 100.14C32.6694 101.143 33.3701 101.931 34.0852 102.547Z" fill="white"/>
<path d="M17.3812 228.177C17.3812 228.177 19.9125 154.716 34.643 116.23L25.2899 97.2599C24.1744 94.996 22.2437 93.3196 19.8696 92.5172C18.9829 92.2163 18.0819 92.0587 17.1666 92.0301C15.6221 91.9871 14.0918 92.3166 12.676 93.0331L-30.5144 114.783C-32.7597 115.915 -34.433 117.85 -35.2052 120.242C-35.9918 122.635 -35.7916 125.186 -34.6475 127.435L15.236 225.469C15.7937 226.601 16.5803 227.489 17.3812 228.177Z" fill="white"/>
<g style="mix-blend-mode:hard-light">
<path d="M81.6375 158.972C81.6375 158.972 83.5539 103.049 94.7805 73.7476L87.6584 59.3048C86.8146 57.5854 85.3416 56.2958 83.5253 55.694C82.8531 55.4648 82.1667 55.3502 81.4659 55.3215C80.2932 55.2785 79.1204 55.5364 78.0478 56.0809L45.1831 72.6444C43.4812 73.5041 42.2084 74.9799 41.6078 76.7995C41.0071 78.6192 41.1644 80.5679 42.0368 82.2729L80.0071 156.909C80.4362 157.769 81.0225 158.442 81.6375 158.972Z" fill="white"/>
</g>
</g>
</g>
<mask id="mask2_1081_14" style="mask-type:luminance" maskUnits="userSpaceOnUse" x="0" y="0" width="347" height="220">
<path d="M328.752 219.222H18.2247C8.34244 219.222 0.319336 211.184 0.319336 201.283V17.939C0.319336 8.03815 8.34244 0 18.2247 0H328.752C338.634 0 346.657 8.03815 346.657 17.939V201.283C346.657 211.184 338.634 219.222 328.752 219.222Z" fill="white"/>
</mask>
<g mask="url(#mask2_1081_14)">
<g opacity="0.31">
<path d="M128.603 132.465C128.704 132.68 128.789 132.881 128.861 133.067C129.118 133.712 130.062 133.669 130.234 132.995C130.248 132.909 130.277 132.823 130.291 132.752C133.28 115.3 138.829 82.5454 140.674 70.481C142.733 57.0124 140.803 53.545 140.531 53.1438L140.388 53.0578L140.402 53.0005C138.057 50.0202 132.579 53.0005 132.522 53.0292L99.1854 73.9914L128.603 132.465Z" fill="white"/>
<path d="M126.029 133.826L106.308 94.0935L96.7827 74.7791C87.0721 104.825 84.3977 159.645 84.3977 159.645C86.2712 160.261 88.2734 160.29 90.0325 159.359L90.1612 159.287L122.969 141.534C124.971 140.431 126.53 138.296 126.53 135.832C126.544 135.846 126.53 134.743 126.029 133.826Z" fill="white"/>
</g>
</g>
<mask id="mask3_1081_14" style="mask-type:luminance" maskUnits="userSpaceOnUse" x="0" y="0" width="347" height="220">
<path d="M328.752 219.222H18.2247C8.34244 219.222 0.319336 211.184 0.319336 201.283V17.939C0.319336 8.03815 8.34244 0 18.2247 0H328.752C338.634 0 346.657 8.03815 346.657 17.939V201.283C346.657 211.184 338.634 219.222 328.752 219.222Z" fill="white"/>
</mask>
<g mask="url(#mask3_1081_14)">
<g opacity="0.31">
<path d="M80.7365 200.324C80.8652 200.61 80.9797 200.897 81.0941 201.14C81.4516 202.029 82.753 201.971 82.9962 201.04C83.0248 200.925 83.0534 200.811 83.0677 200.696C87.2008 176.567 94.8807 131.276 97.4263 114.598C100.272 95.971 97.5979 91.1854 97.2261 90.6266L97.0402 90.4976L97.0545 90.4403C93.8224 86.3281 86.2283 90.4403 86.1568 90.4833L40.0632 119.484L80.7365 200.324Z" fill="white"/>
<path d="M77.1755 202.2L49.9169 147.28L36.7453 120.587C23.3162 162.124 19.6265 237.949 19.6265 237.949C22.215 238.795 24.9895 238.838 27.4207 237.548L27.5924 237.448L72.9565 212.904C75.731 211.37 77.8762 208.419 77.8762 205.023C77.8905 205.009 77.8762 203.476 77.1755 202.2Z" fill="white"/>
</g>
</g>
<path d="M249.036 36.8685C248.884 36.8685 248.76 36.8271 248.663 36.7305C248.58 36.6477 248.525 36.5096 248.525 36.3439V26.9284C248.525 26.7628 248.567 26.6385 248.663 26.5419C248.746 26.459 248.87 26.4038 249.036 26.4038H252.515C253.233 26.4038 253.84 26.5142 254.337 26.7213C254.834 26.9284 255.207 27.2459 255.483 27.6463C255.746 28.0467 255.884 28.5437 255.884 29.1373C255.884 29.7862 255.69 30.3384 255.304 30.7664C254.917 31.2082 254.393 31.4843 253.73 31.6224V31.4153C254.476 31.4981 255.055 31.7604 255.483 32.2022C255.911 32.6578 256.132 33.2515 256.132 33.9832C256.132 34.9081 255.842 35.6122 255.249 36.0954C254.655 36.5786 253.813 36.8271 252.736 36.8271H249.036V36.8685ZM249.423 31.1944H252.418C253.247 31.1944 253.882 31.0287 254.31 30.6836C254.738 30.3384 254.959 29.8414 254.959 29.1926C254.959 28.5437 254.738 28.0467 254.31 27.7015C253.882 27.3564 253.247 27.1907 252.418 27.1907H249.423V31.1944ZM249.423 36.0954H252.639C253.495 36.0954 254.144 35.9297 254.572 35.5846C255 35.2395 255.207 34.7287 255.207 34.0384C255.207 33.3205 255 32.8097 254.572 32.4645C254.144 32.1332 253.509 31.9675 252.639 31.9675H249.423V36.0954Z" fill="white"/>
<path d="M260.522 36.9788C260.039 36.9788 259.611 36.8821 259.225 36.7027C258.838 36.5094 258.548 36.2609 258.327 35.9295C258.106 35.5982 257.996 35.2392 257.996 34.8389C257.996 34.3004 258.134 33.8863 258.396 33.5826C258.659 33.2788 259.114 33.0579 259.749 32.9337C260.384 32.8094 261.254 32.7542 262.359 32.7542H262.994V33.4169H262.372C261.489 33.4169 260.785 33.4583 260.288 33.5274C259.791 33.5964 259.446 33.7344 259.238 33.9415C259.045 34.1348 258.949 34.4109 258.949 34.7699C258.949 35.2116 259.1 35.5706 259.404 35.8467C259.708 36.1228 260.122 36.2609 260.647 36.2609C261.075 36.2609 261.447 36.1643 261.765 35.9572C262.082 35.7501 262.345 35.474 262.524 35.115C262.718 34.7561 262.8 34.3557 262.8 33.9001V32.2158C262.8 31.5531 262.662 31.0699 262.4 30.7662C262.138 30.4625 261.71 30.3106 261.13 30.3106C260.757 30.3106 260.384 30.3658 260.039 30.4625C259.694 30.5591 259.321 30.7248 258.921 30.9319C258.811 30.9871 258.714 31.0147 258.631 30.9871C258.548 30.9733 258.479 30.9319 258.438 30.8628C258.396 30.8076 258.369 30.7386 258.355 30.6419C258.341 30.5591 258.355 30.4763 258.396 30.3934C258.438 30.3106 258.507 30.2554 258.603 30.2002C259.018 29.9793 259.446 29.7998 259.874 29.6894C260.302 29.5789 260.716 29.5237 261.13 29.5237C261.71 29.5237 262.193 29.6203 262.579 29.8136C262.966 30.0069 263.242 30.3106 263.422 30.6972C263.601 31.0975 263.698 31.5945 263.698 32.2296V36.468C263.698 36.6198 263.67 36.7303 263.601 36.8131C263.532 36.896 263.422 36.9374 263.284 36.9374C263.146 36.9374 263.035 36.896 262.952 36.8131C262.869 36.7303 262.828 36.6198 262.828 36.468V35.1012H262.98C262.897 35.4877 262.731 35.8191 262.51 36.0952C262.29 36.3713 262 36.5784 261.668 36.7303C261.309 36.9098 260.937 36.9788 260.522 36.9788Z" fill="white"/>
<path d="M266.487 36.9512C266.335 36.9512 266.224 36.9098 266.141 36.827C266.059 36.7442 266.017 36.6337 266.017 36.4819V30.0346C266.017 29.8827 266.059 29.7585 266.141 29.6756C266.224 29.5928 266.335 29.5514 266.487 29.5514C266.625 29.5514 266.735 29.5928 266.804 29.6756C266.873 29.7585 266.915 29.8689 266.915 30.0346V31.429L266.749 31.3461C266.942 30.7525 267.287 30.2969 267.771 29.9932C268.254 29.6895 268.806 29.5376 269.427 29.5376C269.993 29.5376 270.476 29.6342 270.863 29.8413C271.25 30.0484 271.526 30.3521 271.719 30.7663C271.912 31.1805 271.995 31.7051 271.995 32.3263V36.4957C271.995 36.6475 271.954 36.758 271.871 36.8408C271.788 36.9236 271.678 36.9651 271.539 36.9651C271.388 36.9651 271.277 36.9236 271.194 36.8408C271.112 36.758 271.07 36.6475 271.07 36.4957V32.4092C271.07 31.6913 270.932 31.1667 270.642 30.8353C270.352 30.504 269.897 30.3383 269.275 30.3383C268.557 30.3383 267.991 30.5592 267.563 31.001C267.135 31.4428 266.915 32.0364 266.915 32.7681V36.5095C266.928 36.7994 266.79 36.9512 266.487 36.9512Z" fill="white"/>
<path d="M277.269 36.9789C276.565 36.9789 275.971 36.827 275.46 36.5095C274.963 36.192 274.563 35.764 274.301 35.1841C274.025 34.6181 273.886 33.9554 273.886 33.2099C273.886 32.6439 273.969 32.1193 274.121 31.6775C274.273 31.2219 274.494 30.8491 274.784 30.5316C275.074 30.2141 275.433 29.9656 275.847 29.7999C276.261 29.6342 276.744 29.5376 277.269 29.5376C277.628 29.5376 278.014 29.5928 278.401 29.7171C278.787 29.8413 279.133 30.0484 279.45 30.3383C279.519 30.3936 279.561 30.4626 279.588 30.5454C279.602 30.6282 279.602 30.6973 279.574 30.7801C279.547 30.8491 279.505 30.9182 279.436 30.9596C279.381 31.001 279.312 31.0286 279.215 31.0286C279.133 31.0286 279.05 31.001 278.953 30.9182C278.677 30.6973 278.401 30.5316 278.111 30.4488C277.835 30.3659 277.559 30.3245 277.283 30.3245C276.882 30.3245 276.523 30.3935 276.22 30.5178C275.916 30.642 275.654 30.8353 275.447 31.0838C275.239 31.3323 275.074 31.6361 274.963 31.995C274.853 32.354 274.798 32.7681 274.798 33.2375C274.798 34.1625 275.019 34.8942 275.447 35.4188C275.875 35.9434 276.496 36.2058 277.296 36.2058C277.559 36.2058 277.835 36.1644 278.125 36.0815C278.401 35.9987 278.691 35.8468 278.967 35.6121C279.05 35.5293 279.146 35.5017 279.229 35.5017C279.312 35.5017 279.381 35.5293 279.45 35.5707C279.505 35.6121 279.547 35.6673 279.574 35.7501C279.602 35.8192 279.602 35.902 279.588 35.9849C279.574 36.0677 279.519 36.1367 279.45 36.1919C279.146 36.4819 278.801 36.6751 278.415 36.7994C278.001 36.9236 277.628 36.9789 277.269 36.9789Z" fill="white"/>
<path d="M283.84 36.9789C283.164 36.9789 282.584 36.827 282.087 36.5233C281.59 36.2195 281.204 35.7916 280.941 35.2393C280.665 34.6871 280.527 34.0245 280.527 33.2651C280.527 32.6991 280.61 32.1883 280.762 31.7327C280.914 31.2771 281.135 30.8905 281.424 30.5592C281.714 30.2279 282.073 29.9794 282.474 29.7999C282.888 29.6342 283.33 29.5376 283.827 29.5376C284.503 29.5376 285.097 29.6895 285.594 29.9932C286.091 30.2969 286.477 30.7387 286.74 31.2909C287.016 31.8431 287.154 32.5058 287.154 33.2513C287.154 33.8174 287.071 34.342 286.919 34.7976C286.767 35.2531 286.546 35.6397 286.256 35.971C285.967 36.3024 285.621 36.5509 285.207 36.7166C284.821 36.896 284.351 36.9789 283.84 36.9789ZM283.84 36.2334C284.337 36.2334 284.765 36.1229 285.124 35.8882C285.483 35.6535 285.759 35.3222 285.953 34.8666C286.146 34.4248 286.243 33.8864 286.243 33.2651C286.243 32.3263 286.022 31.5946 285.594 31.0838C285.166 30.573 284.572 30.3107 283.84 30.3107C283.357 30.3107 282.929 30.4212 282.57 30.6559C282.211 30.8906 281.935 31.2219 281.742 31.6637C281.549 32.1055 281.452 32.6301 281.452 33.2513C281.452 34.2039 281.673 34.9356 282.101 35.4464C282.543 35.971 283.123 36.2334 283.84 36.2334Z" fill="white"/>
<path d="M295.561 36.9788C294.913 36.9788 294.36 36.8269 293.877 36.5232C293.394 36.2195 293.021 35.7915 292.759 35.2393C292.497 34.687 292.372 34.0244 292.372 33.2651C292.372 32.5058 292.497 31.8431 292.759 31.2908C293.021 30.7386 293.38 30.3106 293.863 30.0069C294.347 29.7032 294.913 29.5513 295.561 29.5513C296.238 29.5513 296.804 29.7308 297.273 30.0759C297.743 30.4211 298.06 30.8905 298.226 31.4703H298.06V26.804C298.06 26.6521 298.102 26.5279 298.185 26.4588C298.267 26.3898 298.378 26.3484 298.516 26.3484C298.668 26.3484 298.778 26.3898 298.861 26.4588C298.944 26.5279 298.985 26.6521 298.985 26.804V36.5094C298.985 36.6613 298.944 36.7717 298.861 36.8546C298.778 36.9374 298.668 36.9788 298.53 36.9788C298.378 36.9788 298.267 36.9374 298.185 36.8546C298.102 36.7717 298.06 36.6613 298.06 36.5094V34.977L298.226 35.0874C298.074 35.6673 297.757 36.1366 297.273 36.4818C296.804 36.8131 296.238 36.9788 295.561 36.9788ZM295.686 36.2333C296.183 36.2333 296.611 36.1228 296.97 35.8881C297.329 35.6534 297.605 35.3221 297.798 34.8665C297.991 34.4248 298.088 33.8863 298.088 33.2651C298.088 32.3263 297.867 31.5946 297.439 31.0838C297.011 30.5729 296.417 30.3106 295.686 30.3106C295.203 30.3106 294.775 30.4211 294.416 30.6558C294.057 30.8905 293.781 31.2218 293.587 31.6636C293.394 32.1054 293.297 32.63 293.297 33.2512C293.297 34.2038 293.518 34.9355 293.946 35.4464C294.388 35.971 294.968 36.2333 295.686 36.2333Z" fill="white"/>
<path d="M304.466 36.979C303.721 36.979 303.086 36.8271 302.561 36.5372C302.023 36.2473 301.622 35.8193 301.332 35.2671C301.042 34.7149 300.904 34.0522 300.904 33.2929C300.904 32.5474 301.042 31.8847 301.332 31.3324C301.622 30.7802 302.023 30.3384 302.52 30.0209C303.03 29.7034 303.61 29.5515 304.273 29.5515C304.756 29.5515 305.184 29.6343 305.557 29.8C305.93 29.9657 306.247 30.2004 306.509 30.4903C306.772 30.794 306.965 31.153 307.103 31.581C307.241 32.0089 307.31 32.4921 307.31 33.0444C307.31 33.1824 307.269 33.2929 307.2 33.3619C307.131 33.4309 307.02 33.4585 306.896 33.4585H301.539V32.7959H306.744L306.509 32.9891C306.509 32.4231 306.427 31.9261 306.261 31.5257C306.095 31.1254 305.847 30.8216 305.515 30.6007C305.184 30.3798 304.77 30.2694 304.287 30.2694C303.748 30.2694 303.279 30.3937 302.906 30.6422C302.533 30.8907 302.243 31.2358 302.064 31.6776C301.871 32.1194 301.788 32.6302 301.788 33.1962V33.2653C301.788 34.2178 302.023 34.9357 302.478 35.4465C302.948 35.9574 303.596 36.2059 304.439 36.2059C304.798 36.2059 305.156 36.1506 305.502 36.054C305.847 35.9574 306.178 35.7917 306.496 35.557C306.592 35.488 306.689 35.4465 306.786 35.4465C306.882 35.4465 306.965 35.4742 307.02 35.5156C307.089 35.5708 307.131 35.626 307.158 35.6951C307.186 35.7641 307.172 35.8469 307.144 35.9297C307.117 36.0126 307.048 36.0954 306.951 36.1645C306.634 36.4268 306.261 36.62 305.805 36.7443C305.364 36.9099 304.922 36.979 304.466 36.979Z" fill="white"/>
<path d="M252.985 52.7037C252.695 52.7037 252.446 52.6347 252.253 52.4966C252.06 52.3586 251.908 52.1515 251.784 51.8892L247.531 42.3356C247.407 42.0595 247.38 41.8248 247.435 41.6177C247.49 41.4106 247.601 41.245 247.78 41.1346C247.959 41.0103 248.167 40.9551 248.401 40.9551C248.719 40.9551 248.953 41.0241 249.105 41.1622C249.257 41.3002 249.395 41.5073 249.506 41.7696L253.371 50.7157H252.667L256.519 41.7558C256.643 41.4935 256.781 41.3002 256.947 41.1622C257.113 41.0241 257.334 40.9551 257.637 40.9551C257.872 40.9551 258.079 41.0103 258.231 41.1346C258.383 41.2588 258.493 41.4106 258.535 41.6177C258.576 41.8248 258.535 42.0595 258.424 42.3356L254.172 51.8892C254.048 52.1653 253.91 52.3586 253.73 52.4966C253.537 52.6347 253.288 52.7037 252.985 52.7037Z" fill="white"/>
<path d="M262.759 52.7313C261.862 52.7313 261.075 52.5657 260.426 52.2205C259.777 51.8892 259.266 51.406 258.921 50.7847C258.562 50.1635 258.396 49.4318 258.396 48.5896C258.396 47.7613 258.562 47.0434 258.907 46.4221C259.252 45.8009 259.722 45.3177 260.329 44.9587C260.937 44.5998 261.613 44.4341 262.386 44.4341C262.952 44.4341 263.463 44.5307 263.905 44.7102C264.361 44.8897 264.747 45.1658 265.065 45.5109C265.382 45.8561 265.631 46.2841 265.796 46.7811C265.962 47.2781 266.045 47.8303 266.045 48.4516C266.045 48.6448 265.976 48.7967 265.838 48.8933C265.7 48.99 265.506 49.0452 265.258 49.0452H260.026V47.8717H264.609L264.347 48.1202C264.347 47.6232 264.278 47.1952 264.126 46.8639C263.974 46.5326 263.767 46.2703 263.491 46.0908C263.215 45.9113 262.87 45.8285 262.455 45.8285C262 45.8285 261.613 45.9389 261.296 46.146C260.978 46.3531 260.73 46.6568 260.564 47.0434C260.398 47.4299 260.315 47.8855 260.315 48.424V48.5344C260.315 49.4318 260.523 50.0944 260.937 50.5362C261.351 50.978 261.972 51.1989 262.787 51.1989C263.063 51.1989 263.38 51.1575 263.739 51.0884C264.098 51.0194 264.43 50.8951 264.747 50.7157C264.982 50.5914 265.175 50.5224 265.355 50.55C265.534 50.5638 265.672 50.6329 265.769 50.7433C265.865 50.8538 265.934 50.9918 265.962 51.1437C265.99 51.2955 265.948 51.4612 265.879 51.6268C265.796 51.7925 265.658 51.9306 265.465 52.0548C265.078 52.2895 264.65 52.469 264.153 52.5794C263.643 52.6761 263.187 52.7313 262.759 52.7313Z" fill="white"/>
<path d="M268.682 52.7035C268.35 52.7035 268.102 52.6069 267.936 52.4412C267.757 52.2618 267.674 51.9995 267.674 51.6681V45.5108C267.674 45.1794 267.757 44.9171 267.936 44.7515C268.116 44.572 268.35 44.4892 268.668 44.4892C268.985 44.4892 269.234 44.572 269.4 44.7515C269.579 44.931 269.662 45.1794 269.662 45.5108V46.6152L269.482 46.2011C269.717 45.6212 270.09 45.1932 270.601 44.8895C271.111 44.5858 271.677 44.4478 272.326 44.4478C272.961 44.4478 273.5 44.572 273.914 44.8067C274.328 45.0414 274.632 45.4003 274.839 45.8973C275.046 46.3805 275.143 46.988 275.143 47.7335V51.6819C275.143 52.0133 275.06 52.2756 274.88 52.4551C274.701 52.6345 274.452 52.7174 274.135 52.7174C273.804 52.7174 273.555 52.6207 273.376 52.4551C273.196 52.2756 273.113 52.0133 273.113 51.6819V47.8301C273.113 47.2089 273.003 46.7533 272.768 46.4772C272.533 46.2011 272.174 46.0492 271.677 46.0492C271.084 46.0492 270.601 46.2425 270.255 46.6152C269.897 46.988 269.731 47.485 269.731 48.1063V51.6819C269.703 52.3584 269.372 52.7035 268.682 52.7035Z" fill="white"/>
<path d="M281.134 52.7313C280.237 52.7313 279.45 52.5657 278.801 52.2205C278.152 51.8892 277.642 51.406 277.296 50.7847C276.938 50.1635 276.772 49.4318 276.772 48.5896C276.772 47.7613 276.938 47.0434 277.283 46.4221C277.628 45.8009 278.097 45.3177 278.705 44.9587C279.312 44.5998 279.989 44.4341 280.762 44.4341C281.328 44.4341 281.839 44.5307 282.28 44.7102C282.736 44.8897 283.122 45.1658 283.44 45.5109C283.758 45.8561 284.006 46.2841 284.172 46.7811C284.337 47.2781 284.42 47.8303 284.42 48.4516C284.42 48.6448 284.351 48.7967 284.213 48.8933C284.075 48.99 283.882 49.0452 283.633 49.0452H278.401V47.8717H282.984L282.722 48.1202C282.722 47.6232 282.653 47.1952 282.501 46.8639C282.349 46.5326 282.142 46.2703 281.866 46.0908C281.59 45.9113 281.245 45.8285 280.831 45.8285C280.375 45.8285 279.989 45.9389 279.671 46.146C279.354 46.3531 279.105 46.6568 278.939 47.0434C278.774 47.4299 278.691 47.8855 278.691 48.424V48.5344C278.691 49.4318 278.898 50.0944 279.312 50.5362C279.726 50.978 280.348 51.1989 281.162 51.1989C281.438 51.1989 281.756 51.1575 282.115 51.0884C282.474 51.0194 282.805 50.8951 283.122 50.7157C283.357 50.5914 283.55 50.5224 283.73 50.55C283.909 50.5638 284.047 50.6329 284.144 50.7433C284.241 50.8538 284.31 50.9918 284.337 51.1437C284.365 51.2955 284.324 51.4612 284.255 51.6268C284.172 51.7925 284.034 51.9306 283.84 52.0548C283.454 52.2895 283.026 52.469 282.529 52.5794C282.018 52.6761 281.562 52.7313 281.134 52.7313Z" fill="white"/>
<path d="M286.436 52.5796C286.229 52.5796 286.063 52.5244 285.925 52.4277C285.787 52.3311 285.704 52.193 285.663 52.0273C285.621 51.8617 285.621 51.6822 285.677 51.5027C285.732 51.3094 285.828 51.13 285.98 50.9505L290.205 45.6491V46.1323H286.353C286.105 46.1323 285.911 46.0632 285.773 45.9252C285.635 45.7871 285.566 45.6077 285.566 45.3592C285.566 45.1107 285.635 44.9174 285.773 44.7932C285.911 44.6689 286.105 44.5999 286.353 44.5999H291.171C291.406 44.5999 291.599 44.6551 291.765 44.7517C291.917 44.8484 292.013 44.9864 292.069 45.1521C292.124 45.3177 292.124 45.4834 292.082 45.6767C292.041 45.8562 291.944 46.0357 291.793 46.2013L287.485 51.5855V51.0471H291.558C292.082 51.0471 292.345 51.2956 292.345 51.8064C292.345 52.0411 292.276 52.2344 292.138 52.3725C292 52.5105 291.806 52.5796 291.558 52.5796H286.436Z" fill="white"/>
<path d="M296.555 52.7313C295.893 52.7313 295.341 52.607 294.913 52.3585C294.485 52.11 294.153 51.7511 293.946 51.2541C293.739 50.7709 293.629 50.1496 293.629 49.4317V45.4833C293.629 45.1382 293.711 44.8759 293.891 44.7102C294.07 44.5445 294.319 44.4617 294.636 44.4617C294.968 44.4617 295.216 44.5445 295.396 44.7102C295.575 44.8759 295.658 45.1382 295.658 45.4833V49.4594C295.658 50.0254 295.769 50.4395 296.003 50.7157C296.238 50.9918 296.597 51.1299 297.094 51.1299C297.632 51.1299 298.088 50.9366 298.433 50.5638C298.778 50.1911 298.958 49.6941 298.958 49.0728V45.4833C298.958 45.1382 299.041 44.8759 299.22 44.7102C299.399 44.5445 299.648 44.4617 299.965 44.4617C300.297 44.4617 300.545 44.5445 300.725 44.7102C300.904 44.8759 300.987 45.1382 300.987 45.4833V51.6407C300.987 52.3309 300.656 52.6899 299.993 52.6899C299.676 52.6899 299.427 52.5933 299.261 52.4276C299.082 52.2481 298.999 51.9858 298.999 51.6545V50.4119L299.234 50.8951C298.999 51.4888 298.654 51.9306 298.198 52.2481C297.729 52.5795 297.191 52.7313 296.555 52.7313Z" fill="white"/>
<path d="M307.034 52.7313C306.137 52.7313 305.35 52.5657 304.701 52.2205C304.052 51.8892 303.541 51.406 303.196 50.7847C302.837 50.1635 302.671 49.4318 302.671 48.5896C302.671 47.7613 302.837 47.0434 303.182 46.4221C303.527 45.8009 303.997 45.3177 304.604 44.9587C305.212 44.5998 305.888 44.4341 306.661 44.4341C307.227 44.4341 307.738 44.5307 308.18 44.7102C308.635 44.8897 309.022 45.1658 309.339 45.5109C309.657 45.8561 309.905 46.2841 310.071 46.7811C310.237 47.2781 310.32 47.8303 310.32 48.4516C310.32 48.6448 310.251 48.7967 310.113 48.8933C309.974 48.99 309.781 49.0452 309.533 49.0452H304.3V47.8717H308.884L308.622 48.1202C308.622 47.6232 308.552 47.1952 308.401 46.8639C308.249 46.5326 308.042 46.2703 307.766 46.0908C307.489 45.9113 307.144 45.8285 306.73 45.8285C306.275 45.8285 305.888 45.9389 305.57 46.146C305.253 46.3531 305.004 46.6568 304.839 47.0434C304.673 47.4299 304.59 47.8855 304.59 48.424V48.5344C304.59 49.4318 304.797 50.0944 305.212 50.5362C305.626 50.978 306.247 51.1989 307.061 51.1989C307.338 51.1989 307.655 51.1575 308.014 51.0884C308.373 51.0194 308.704 50.8951 309.022 50.7157C309.257 50.5914 309.45 50.5224 309.629 50.55C309.809 50.5638 309.947 50.6329 310.044 50.7433C310.14 50.8538 310.209 50.9918 310.237 51.1437C310.264 51.2955 310.223 51.4612 310.154 51.6268C310.071 51.7925 309.933 51.9306 309.74 52.0548C309.353 52.2895 308.925 52.469 308.428 52.5794C307.917 52.6761 307.462 52.7313 307.034 52.7313Z" fill="white"/>
<path d="M314.669 52.7313C313.771 52.7313 313.081 52.469 312.625 51.9581C312.17 51.4473 311.935 50.688 311.935 49.6802V41.9628C311.935 41.6314 312.018 41.3691 312.197 41.2035C312.377 41.024 312.625 40.9412 312.943 40.9412C313.274 40.9412 313.523 41.024 313.702 41.2035C313.882 41.3829 313.965 41.6314 313.965 41.9628V49.5697C313.965 50.0667 314.075 50.4395 314.282 50.6742C314.489 50.9089 314.793 51.0331 315.193 51.0331C315.276 51.0331 315.359 51.0331 315.442 51.0193C315.525 51.0193 315.594 51.0055 315.676 50.9917C315.828 50.9641 315.925 51.0055 315.98 51.116C316.035 51.2126 316.063 51.4335 316.063 51.7372C316.063 52.0134 316.008 52.2204 315.897 52.3723C315.787 52.5242 315.607 52.6208 315.359 52.6484C315.248 52.6622 315.138 52.676 315.014 52.676C314.903 52.7312 314.793 52.7313 314.669 52.7313Z" fill="white"/>
<path d="M319.777 52.7312C319.197 52.7312 318.686 52.6207 318.23 52.3998C317.775 52.1789 317.43 51.8752 317.167 51.4887C316.919 51.1021 316.781 50.6741 316.781 50.2047C316.781 49.6111 316.933 49.1555 317.236 48.8104C317.54 48.4652 318.037 48.2167 318.714 48.0648C319.404 47.913 320.315 47.8301 321.475 47.8301H322.289V49.0036H321.489C320.812 49.0036 320.274 49.0312 319.873 49.1003C319.473 49.1693 319.183 49.2797 319.017 49.4316C318.852 49.5835 318.769 49.8044 318.769 50.0943C318.769 50.4532 318.893 50.7431 319.142 50.9778C319.39 51.2125 319.735 51.323 320.191 51.323C320.55 51.323 320.867 51.2402 321.143 51.0745C321.42 50.9088 321.64 50.6741 321.806 50.3842C321.972 50.0943 322.055 49.7491 322.055 49.3764V47.4988C322.055 46.9604 321.93 46.56 321.696 46.3253C321.461 46.0906 321.061 45.9664 320.495 45.9664C320.177 45.9664 319.846 46.0078 319.473 46.0768C319.114 46.1458 318.727 46.2839 318.327 46.4634C318.12 46.56 317.941 46.5876 317.775 46.5462C317.623 46.5048 317.499 46.4081 317.402 46.2839C317.319 46.1458 317.278 45.994 317.278 45.8421C317.278 45.6764 317.319 45.5246 317.402 45.3589C317.485 45.2071 317.637 45.0828 317.844 45.0138C318.341 44.8067 318.824 44.6548 319.28 44.572C319.735 44.4892 320.163 44.4478 320.55 44.4478C321.337 44.4478 321.972 44.572 322.483 44.8067C322.993 45.0414 323.366 45.4003 323.615 45.8973C323.863 46.3805 323.987 47.0018 323.987 47.7611V51.6681C323.987 51.9995 323.905 52.2618 323.739 52.4412C323.573 52.6207 323.339 52.7035 323.035 52.7035C322.731 52.7035 322.496 52.6069 322.331 52.4412C322.165 52.2618 322.082 51.9995 322.082 51.6681V50.8812H322.207C322.124 51.2678 321.986 51.5853 321.765 51.8614C321.544 52.1375 321.268 52.3584 320.923 52.5103C320.591 52.6622 320.205 52.7312 319.777 52.7312Z" fill="white"/>
<path d="M153.142 26.5004C153.142 25.9206 153.611 25.4512 154.191 25.4512H166.409C171.779 25.4512 175.41 27.1907 175.41 32.4369C175.41 35.198 174.03 37.1308 171.586 38.3181C175.024 39.3121 176.763 41.949 176.763 45.4695C176.763 51.1988 171.904 53.6425 166.809 53.6425H154.191C153.611 53.6425 153.142 53.1731 153.142 52.5932V26.5004ZM159.34 36.4129C159.34 36.6614 159.548 36.8685 159.796 36.8685H165.622C167.79 36.8685 169.419 35.8745 169.419 33.5137C169.419 30.8216 167.362 30.2694 165.153 30.2694H160.058C159.658 30.2694 159.34 30.5869 159.34 30.9873V36.4129ZM159.34 48.3825C159.34 48.631 159.548 48.8381 159.796 48.8381H165.981C168.425 48.8381 170.565 48.0511 170.565 45.1243C170.565 42.2389 168.742 41.093 166.105 41.093H159.81C159.561 41.093 159.354 41.3001 159.354 41.5486V48.3825H159.34Z" fill="white"/>
<path d="M180.077 26.666C180.077 25.9895 180.629 25.4373 181.305 25.4373H192.253C199.557 25.4373 205.051 30.0207 205.051 39.381C205.051 47.554 200.868 53.6423 192.253 53.6423H181.167C180.574 53.6423 180.09 53.1592 180.09 52.5655V26.666H180.077ZM186.275 47.7335C186.275 48.1201 186.593 48.4376 186.98 48.4376H191.798C195.387 48.4376 198.825 46.2287 198.825 39.9885C198.825 34.3005 196.851 30.6696 190.693 30.6696H186.98C186.593 30.6696 186.275 30.9872 186.275 31.3737V47.7335Z" fill="white"/>
<path d="M221.646 53.6423H216.248C215.764 53.6423 215.35 53.3386 215.198 52.883L206.749 26.8869C206.515 26.169 207.053 25.4373 207.798 25.4373H211.926C212.382 25.4373 212.782 25.7272 212.92 26.169L218.967 45.2761H219.05L225.18 26.169C225.318 25.741 225.718 25.4511 226.174 25.4511H230.288C231.047 25.4511 231.572 26.1828 231.337 26.9007L222.709 52.8968C222.543 53.3386 222.115 53.6423 221.646 53.6423Z" fill="white"/>
<path d="M240.145 22.9109H239.635V56.2517H240.145V22.9109Z" fill="white"/>
<path d="M147.758 23.2836L147.606 23.0213C146.888 22.0963 145.48 22.3862 144.472 22.9108L133.841 29.5928L133.455 28.8197L131.246 24.3466C130.915 23.684 130.349 23.1732 129.631 22.9385C129.368 22.8556 129.106 22.8004 128.83 22.8004C128.374 22.7866 127.919 22.8832 127.505 23.1041L117.026 28.3779C116.363 28.7092 115.866 29.2891 115.632 29.9932C115.397 30.6973 115.452 31.4566 115.797 32.1193L127.864 55.7961C127.919 55.9065 128.057 56.1136 128.126 56.2102C128.25 56.3897 128.374 56.514 128.526 56.652C128.54 56.652 129.672 57.9359 131.715 57.0386C131.715 57.0386 139.75 52.6898 142.001 51.4887C144.251 50.2876 144.527 48.3272 144.541 48.2858C145.48 42.8325 147.219 32.6853 147.799 28.9163C148.351 25.244 147.992 23.8082 147.758 23.2836Z" fill="white"/>
<path d="M143.519 48.1754C143.547 48.2444 143.574 48.2997 143.602 48.3549C143.685 48.562 143.975 48.5482 144.03 48.3273C144.03 48.2997 144.044 48.2721 144.044 48.2445C144.982 42.7912 146.722 32.5474 147.302 28.7784C147.951 24.5677 147.343 23.4908 147.26 23.3666L147.219 23.3251C146.487 22.4002 144.762 23.3251 144.748 23.3389L134.311 29.8967L143.519 48.1754Z" fill="#DB0032" stroke="white" stroke-width="0.2835" stroke-miterlimit="10"/>
<path d="M142.705 48.6031L136.533 36.1918L133.551 30.1587C130.514 39.5466 129.672 56.6933 129.672 56.6933C130.252 56.8866 130.887 56.9004 131.439 56.5966L131.481 56.569L141.752 51.0191C142.387 50.674 142.87 50.0113 142.87 49.2382C142.87 49.2382 142.87 48.893 142.705 48.6031Z" fill="#0067B2" stroke="white" stroke-width="0.2835" stroke-miterlimit="10"/>
<path d="M128.871 56.2656C128.871 56.2656 129.479 38.47 133.054 29.1511L130.79 24.5538C130.514 24.0016 130.058 23.6012 129.479 23.408C129.258 23.3389 129.051 23.2975 128.83 23.2837C128.457 23.2699 128.084 23.3527 127.739 23.5322L117.261 28.806C116.722 29.0821 116.308 29.5515 116.115 30.1313C115.921 30.7112 115.977 31.3324 116.253 31.8708L128.36 55.6167C128.485 55.8928 128.678 56.0999 128.871 56.2656Z" fill="#FEC800" stroke="white" stroke-width="0.2835" stroke-miterlimit="10" stroke-linejoin="round"/>
<path d="M292.624 201.525C288.788 201.525 285.014 200.214 281.999 197.833C274.548 191.951 273.247 181.08 279.106 173.595C282.391 169.403 287.32 167 292.637 167C296.182 167 299.546 168.062 302.434 170.085C305.322 168.062 308.686 167 312.23 167C317.548 167 322.477 169.403 325.757 173.595C328.129 176.623 329.434 180.411 329.434 184.262C329.434 188.874 327.644 193.208 324.399 196.47C321.154 199.732 316.833 201.525 312.239 201.525C308.743 201.525 305.295 200.436 302.429 198.44C299.564 200.436 296.116 201.525 292.62 201.525H292.624Z" fill="white"/>
<path d="M309.383 171.736H295.495V196.793H309.383V171.736Z" fill="#EB621D"/>
<path d="M296.376 184.262C296.372 179.371 298.607 174.755 302.439 171.736C295.548 166.296 285.57 167.496 280.152 174.414C274.733 181.337 275.928 191.353 282.824 196.789C288.582 201.33 296.685 201.33 302.439 196.789C298.607 193.77 296.372 189.149 296.376 184.262Z" fill="#E41522"/>
<path d="M328.12 184.262C328.12 193.062 321.013 200.197 312.248 200.197C308.69 200.197 305.238 198.997 302.439 196.788C309.33 191.349 310.524 181.328 305.106 174.409C304.326 173.414 303.431 172.515 302.439 171.732C309.33 166.292 319.307 167.491 324.726 174.414C326.926 177.22 328.12 180.69 328.12 184.262Z" fill="#F59E1F"/>
<defs>
<linearGradient id="paint0_linear_1081_14" x1="-11.4728" y1="107.143" x2="358.454" y2="107.143" gradientUnits="userSpaceOnUse">
<stop offset="0.0553" stop-color="#0767B1"/>
<stop offset="0.0647" stop-color="#2E6DAE"/>
<stop offset="0.1261" stop-color="#97928D"/>
<stop offset="0.1758" stop-color="#D1AE60"/>
<stop offset="0.2115" stop-color="#F2C02F"/>
<stop offset="0.2297" stop-color="#FEC702"/>
<stop offset="0.2385" stop-color="#FCC011"/>
<stop offset="0.2987" stop-color="#EE8D2F"/>
<stop offset="0.3534" stop-color="#E56034"/>
<stop offset="0.4006" stop-color="#DF3A34"/>
<stop offset="0.4386" stop-color="#DC1E34"/>
<stop offset="0.4625" stop-color="#DB0B33"/>
</linearGradient>
</defs>
</svg>
