<svg width="364" height="230" viewBox="0 0 364 230" fill="none" xmlns="http://www.w3.org/2000/svg">
<mask id="mask0_4304_6" style="mask-type:luminance" maskUnits="userSpaceOnUse" x="0" y="0" width="364" height="230">
<path d="M344.554 229.983H18.7843C8.41692 229.983 0 221.55 0 211.163V18.8195C0 8.4327 8.41692 0 18.7843 0H344.554C354.921 0 363.338 8.4327 363.338 18.8195V211.163C363.338 221.55 354.921 229.983 344.554 229.983Z" fill="white"/>
</mask>
<g mask="url(#mask0_4304_6)">
<path d="M375.716 228.645C375.716 234.928 370.81 240.024 364.764 240.024H-1.42506C-7.47144 240.024 -12.3776 234.928 -12.3776 228.645V-3.83292C-12.3776 -10.1161 -7.47144 -15.1968 -1.42506 -15.1968H364.749C370.795 -15.1968 375.701 -10.1011 375.701 -3.83292V228.645H375.716Z" fill="url(#paint0_linear_4304_6)"/>
<mask id="mask1_4304_6" style="mask-type:luminance" maskUnits="userSpaceOnUse" x="0" y="0" width="364" height="230">
<path d="M344.554 229.983H18.7843C8.41692 229.983 0 221.55 0 211.163V18.8195C0 8.4327 8.41692 0 18.7843 0H344.554C354.921 0 363.338 8.4327 363.338 18.8195V211.163C363.338 221.55 354.921 229.983 344.554 229.983Z" fill="white"/>
</mask>
<g mask="url(#mask1_4304_6)">
<g opacity="0.31">
<path d="M91.8211 76.3453C91.9411 76.6008 92.0312 76.8413 92.1212 77.0668C92.4363 77.8484 93.5765 77.7883 93.7716 76.9766C93.8016 76.8714 93.8166 76.7812 93.8316 76.676C97.4324 55.6318 104.139 16.1138 106.359 1.5633C108.835 -14.6858 106.509 -18.8646 106.179 -19.3456L106.014 -19.4508L106.029 -19.5109C103.209 -23.1035 96.5922 -19.5109 96.5172 -19.4658L56.338 5.81723L91.8211 76.3453Z" fill="white"/>
<path d="M88.7155 77.9838L64.9351 30.0782L53.4575 6.7793C41.7398 43.0204 38.514 109.159 38.514 109.159C40.7796 109.896 43.1951 109.941 45.3106 108.813L45.4606 108.738L85.0397 87.3334C87.4552 85.9956 89.3307 83.4252 89.3307 80.4489C89.3457 80.4339 89.3156 79.0961 88.7155 77.9838Z" fill="white"/>
<path d="M35.4233 107.581C35.4233 107.581 37.7788 38.9168 51.552 2.9463L42.805 -14.7909C41.7697 -16.8954 39.9693 -18.4737 37.7338 -19.2252C36.9086 -19.4958 36.0684 -19.6461 35.2132 -19.6762C33.7729 -19.7213 32.3476 -19.4056 31.0123 -18.7442L-9.34694 1.59346C-11.4474 2.64567 -13.0078 4.46448 -13.7279 6.70418C-14.4631 8.94389 -14.2681 11.3189 -13.2028 13.4233L33.4128 105.056C33.938 106.108 34.6731 106.935 35.4233 107.581Z" fill="white"/>
<path d="M17.8993 239.377C17.8993 239.377 20.5549 162.311 36.0084 121.936L26.1962 102.034C25.0259 99.6591 23.0004 97.9004 20.5099 97.0587C19.5797 96.743 18.6345 96.5777 17.6742 96.5476C16.0539 96.5025 14.4485 96.8482 12.9632 97.5998L-32.3472 120.418C-34.7027 121.605 -36.4581 123.634 -37.2683 126.145C-38.0935 128.655 -37.8835 131.331 -36.6832 133.691L15.6488 236.536C16.2339 237.724 17.0591 238.656 17.8993 239.377Z" fill="white"/>
<g style="mix-blend-mode:hard-light">
<path d="M85.3097 166.775C85.3097 166.775 87.3202 108.107 99.0979 77.3676L91.6262 62.2158C90.741 60.412 89.1956 59.0592 87.2902 58.4279C86.585 58.1874 85.8648 58.0671 85.1297 58.0371C83.8994 57.992 82.6691 58.2625 81.5438 58.8337L47.066 76.2102C45.2806 77.1121 43.9453 78.6603 43.3151 80.5694C42.685 82.4784 42.85 84.5227 43.7652 86.3114L83.5993 164.611C84.0494 165.513 84.6646 166.219 85.3097 166.775Z" fill="white"/>
</g>
</g>
</g>
<mask id="mask2_4304_6" style="mask-type:luminance" maskUnits="userSpaceOnUse" x="0" y="0" width="364" height="230">
<path d="M344.554 229.983H18.7843C8.41692 229.983 0 221.55 0 211.163V18.8195C0 8.4327 8.41692 0 18.7843 0H344.554C354.921 0 363.338 8.4327 363.338 18.8195V211.163C363.338 221.55 354.921 229.983 344.554 229.983Z" fill="white"/>
</mask>
<g mask="url(#mask2_4304_6)">
<g opacity="0.31">
<path d="M134.581 138.967C134.686 139.193 134.776 139.403 134.851 139.598C135.121 140.275 136.111 140.23 136.291 139.523C136.306 139.433 136.336 139.343 136.351 139.268C139.487 120.959 145.308 86.5972 147.244 73.9406C149.404 59.8109 147.379 56.1733 147.094 55.7524L146.944 55.6622L146.959 55.6021C144.498 52.4755 138.752 55.6021 138.692 55.6322L103.719 77.6233L134.581 138.967Z" fill="white"/>
<path d="M131.88 140.395L111.191 98.7122L101.198 78.4497C91.011 109.971 88.2053 167.482 88.2053 167.482C90.1708 168.128 92.2712 168.158 94.1167 167.181L94.2517 167.106L128.67 148.482C130.77 147.324 132.405 145.085 132.405 142.499C132.42 142.514 132.405 141.357 131.88 140.395Z" fill="white"/>
</g>
</g>
<mask id="mask3_4304_6" style="mask-type:luminance" maskUnits="userSpaceOnUse" x="0" y="0" width="364" height="230">
<path d="M344.554 229.983H18.7843C8.41692 229.983 0 221.55 0 211.163V18.8195C0 8.4327 8.41692 0 18.7843 0H344.554C354.921 0 363.338 8.4327 363.338 18.8195V211.163C363.338 221.55 354.921 229.983 344.554 229.983Z" fill="white"/>
</mask>
<g mask="url(#mask3_4304_6)">
<g opacity="0.31">
<path d="M84.3645 210.157C84.4995 210.457 84.6195 210.758 84.7395 211.014C85.1146 211.946 86.4799 211.885 86.735 210.908C86.765 210.788 86.795 210.668 86.81 210.548C91.146 185.234 99.2028 137.72 101.873 120.223C104.859 100.682 102.053 95.6614 101.663 95.0752L101.468 94.9399L101.483 94.8798C98.0926 90.5657 90.1258 94.8798 90.0507 94.9249L41.6947 125.349L84.3645 210.157Z" fill="white"/>
<path d="M80.6286 212.126L52.032 154.51L38.2139 126.506C24.1256 170.082 20.2548 249.629 20.2548 249.629C22.9704 250.516 25.881 250.561 28.4316 249.208L28.6117 249.103L76.2026 223.354C79.1132 221.746 81.3637 218.649 81.3637 215.087C81.3787 215.072 81.3637 213.463 80.6286 212.126Z" fill="white"/>
</g>
</g>
<path d="M261.572 27.8012C261.572 27.1929 262.064 26.7004 262.673 26.7004H275.49C281.124 26.7004 284.933 28.5253 284.933 34.029C284.933 36.9257 283.485 38.9534 280.922 40.199C284.528 41.2418 286.353 44.0081 286.353 47.7013C286.353 53.7119 281.255 56.2755 275.91 56.2755H262.673C262.064 56.2755 261.572 55.7831 261.572 55.1748V27.8012ZM268.075 38.2002C268.075 38.4609 268.292 38.6782 268.553 38.6782H274.665C276.939 38.6782 278.648 37.6354 278.648 35.1587C278.648 32.3345 276.49 31.7551 274.172 31.7551H268.828C268.408 31.7551 268.075 32.0882 268.075 32.5083V38.2002ZM268.075 50.7573C268.075 51.018 268.292 51.2353 268.553 51.2353H275.041C277.605 51.2353 279.85 50.4097 279.85 47.3392C279.85 44.3122 277.938 43.1101 275.172 43.1101H268.567C268.307 43.1101 268.089 43.3274 268.089 43.5881V50.7573H268.075Z" fill="white"/>
<path d="M289.829 27.9751C289.829 27.2654 290.408 26.686 291.118 26.686H302.603C310.265 26.686 316.029 31.4945 316.029 41.3142C316.029 49.8884 311.641 56.2756 302.603 56.2756H290.973C290.35 56.2756 289.843 55.7687 289.843 55.1459V27.9751H289.829ZM296.332 50.0767C296.332 50.4822 296.665 50.8153 297.071 50.8153H302.125C305.891 50.8153 309.497 48.498 309.497 41.9515C309.497 35.9844 307.426 32.1752 300.967 32.1752H297.071C296.665 32.1752 296.332 32.5084 296.332 32.9139V50.0767Z" fill="white"/>
<path d="M333.438 56.2756H327.775C327.268 56.2756 326.834 55.9569 326.674 55.479L317.811 28.2068C317.564 27.4537 318.129 26.686 318.911 26.686H323.242C323.72 26.686 324.14 26.9902 324.285 27.4537L330.628 47.4987H330.715L337.146 27.4537C337.291 27.0047 337.711 26.7005 338.189 26.7005H342.505C343.301 26.7005 343.852 27.4681 343.605 28.2213L334.553 55.4935C334.38 55.9569 333.931 56.2756 333.438 56.2756Z" fill="white"/>
<path d="M255.923 24.4266L255.764 24.1514C255.011 23.181 253.534 23.4851 252.476 24.0355L241.324 31.0454L240.919 30.2344L238.601 25.5418C238.254 24.8466 237.66 24.3107 236.907 24.0645C236.631 23.9776 236.356 23.9196 236.067 23.9196C235.589 23.9051 235.111 24.0065 234.676 24.2383L223.683 29.7709C222.988 30.1185 222.467 30.7268 222.221 31.4655C221.974 32.2041 222.032 33.0007 222.394 33.6959L235.053 58.5349C235.111 58.6508 235.256 58.868 235.328 58.9694C235.458 59.1577 235.589 59.288 235.748 59.4329C235.762 59.4329 236.95 60.7798 239.094 59.8384C239.094 59.8384 247.523 55.2762 249.884 54.0161C252.245 52.756 252.534 50.6994 252.549 50.6559C253.534 44.935 255.358 34.2897 255.967 30.3358C256.546 26.4832 256.17 24.9769 255.923 24.4266Z" fill="white"/>
<path d="M251.477 50.5401C251.506 50.6125 251.535 50.6705 251.564 50.7284C251.651 50.9456 251.955 50.9312 252.013 50.6994C252.013 50.6705 252.027 50.6415 252.027 50.6125C253.012 44.8916 254.837 34.1449 255.445 30.191C256.126 25.7736 255.489 24.6439 255.402 24.5135L255.358 24.4701C254.591 23.4997 252.78 24.47 252.766 24.4845L241.816 31.3641L251.477 50.5401Z" fill="#DB0032" stroke="white" stroke-width="0.2835" stroke-miterlimit="10"/>
<path d="M250.622 50.9889L244.148 37.9684L241.02 31.6392C237.834 41.4879 236.95 59.4762 236.95 59.4762C237.558 59.679 238.225 59.6934 238.804 59.3748L238.847 59.3459L249.623 53.5235C250.289 53.1614 250.796 52.4663 250.796 51.6552C250.796 51.6552 250.796 51.2931 250.622 50.9889Z" fill="#0067B2" stroke="white" stroke-width="0.2835" stroke-miterlimit="10"/>
<path d="M236.11 59.0274C236.11 59.0274 236.747 40.3583 240.498 30.582L238.123 25.7591C237.833 25.1797 237.355 24.7597 236.747 24.5569C236.515 24.4845 236.298 24.4411 236.066 24.4266C235.675 24.4121 235.284 24.499 234.922 24.6873L223.929 30.2199C223.364 30.5096 222.93 31.002 222.727 31.6103C222.524 32.2186 222.582 32.8704 222.872 33.4352L235.574 58.3467C235.704 58.6363 235.907 58.8536 236.11 59.0274Z" fill="#FEC800" stroke="white" stroke-width="0.2835" stroke-miterlimit="10" stroke-linejoin="round"/>
<path d="M306.653 211.416C302.629 211.416 298.669 210.042 295.506 207.544C287.689 201.373 286.324 189.968 292.471 182.116C295.917 177.719 301.088 175.197 306.666 175.197C310.385 175.197 313.914 176.312 316.944 178.434C319.973 176.312 323.502 175.197 327.221 175.197C332.799 175.197 337.97 177.719 341.412 182.116C343.9 185.292 345.269 189.267 345.269 193.307C345.269 198.145 343.391 202.691 339.987 206.114C336.583 209.536 332.05 211.416 327.23 211.416C323.563 211.416 319.946 210.274 316.939 208.18C313.933 210.274 310.316 211.416 306.648 211.416H306.653Z" fill="white"/>
<path d="M324.234 180.166H309.664V206.453H324.234V180.166Z" fill="#EB621D"/>
<path d="M310.589 193.307C310.584 188.176 312.929 183.333 316.949 180.166C309.72 174.459 299.252 175.717 293.568 182.975C287.884 190.238 289.137 200.746 296.371 206.448C302.412 211.212 310.913 211.212 316.949 206.448C312.929 203.281 310.584 198.433 310.589 193.307Z" fill="#E41522"/>
<path d="M343.891 193.307C343.891 202.538 336.435 210.023 327.24 210.023C323.507 210.023 319.886 208.765 316.949 206.448C324.178 200.741 325.432 190.228 319.747 182.97C318.928 181.926 317.989 180.983 316.949 180.161C324.178 174.454 334.645 175.713 340.33 182.975C342.638 185.919 343.891 189.56 343.891 193.307Z" fill="#F59E1F"/>
</g>
<defs>
<linearGradient id="paint0_linear_4304_6" x1="-12.371" y1="112.402" x2="375.714" y2="112.402" gradientUnits="userSpaceOnUse">
<stop offset="0.0553" stop-color="#0767B1"/>
<stop offset="0.0647" stop-color="#2E6DAE"/>
<stop offset="0.1261" stop-color="#97928D"/>
<stop offset="0.1758" stop-color="#D1AE60"/>
<stop offset="0.2115" stop-color="#F2C02F"/>
<stop offset="0.2297" stop-color="#FEC702"/>
<stop offset="0.2385" stop-color="#FCC011"/>
<stop offset="0.2987" stop-color="#EE8D2F"/>
<stop offset="0.3534" stop-color="#E56034"/>
<stop offset="0.4006" stop-color="#DF3A34"/>
<stop offset="0.4386" stop-color="#DC1E34"/>
<stop offset="0.4625" stop-color="#DB0B33"/>
</linearGradient>
</defs>
</svg>
