<svg width="369" height="235" viewBox="0 0 369 235" fill="none" xmlns="http://www.w3.org/2000/svg">
<mask id="mask0_4304_3" style="mask-type:luminance" maskUnits="userSpaceOnUse" x="0" y="0" width="369" height="235">
<path d="M349.908 234.675H19.077C8.54809 234.675 0 226.1 0 215.539V19.9613C0 9.39991 8.54809 0.825439 19.077 0.825439H349.923C360.452 0.825439 369 9.39991 369 19.9613V215.539C368.985 226.1 360.452 234.675 349.908 234.675Z" fill="white"/>
</mask>
<g mask="url(#mask0_4304_3)">
<path d="M379.956 233.91C379.956 240.284 374.973 245.435 368.832 245.435H-3.0017C-9.1423 245.435 -14.1249 240.269 -14.1249 233.91V-1.72701C-14.1249 -8.10055 -9.1423 -13.2513 -3.0017 -13.2513H368.848C374.988 -13.2513 379.971 -8.08526 379.971 -1.72701V233.91H379.956Z" fill="url(#paint0_linear_4304_3)"/>
<mask id="mask1_4304_3" style="mask-type:luminance" maskUnits="userSpaceOnUse" x="0" y="0" width="369" height="235">
<path d="M349.908 234.675H19.077C8.54809 234.675 0 226.1 0 215.539V19.9613C0 9.39991 8.54809 0.825439 19.077 0.825439H349.923C360.452 0.825439 369 9.39991 369 19.9613V215.539C368.985 226.1 360.452 234.675 349.908 234.675Z" fill="white"/>
</mask>
<g mask="url(#mask1_4304_3)">
<g opacity="0.31">
<path d="M104.421 76.6354C104.543 76.8952 104.634 77.1398 104.725 77.369C105.045 78.1638 106.203 78.1027 106.402 77.2773C106.432 77.1703 106.447 77.0786 106.462 76.9716C110.119 55.5737 116.93 15.3914 119.186 0.596203C121.7 -15.9261 119.338 -20.1751 119.003 -20.6642L118.835 -20.7712L118.85 -20.8323C115.986 -24.4853 109.266 -20.8323 109.19 -20.7865L68.3694 4.93693L104.421 76.6354Z" fill="white"/>
<path d="M101.267 78.3014L77.1156 29.5904L65.4591 5.89984C53.5588 42.7502 50.2828 110.001 50.2828 110.001C52.5837 110.75 55.0369 110.796 57.1853 109.649L57.3377 109.573L97.5335 87.7929C99.9867 86.4326 101.891 83.819 101.891 80.7927C101.891 80.7927 101.876 79.4324 101.267 78.3014Z" fill="white"/>
<path d="M47.1287 108.396C47.1287 108.396 49.5209 38.5776 63.5087 2.00235L54.6254 -16.0331C53.5741 -18.1729 51.7456 -19.7777 49.4752 -20.5419C48.6372 -20.817 47.7687 -20.9699 46.9154 -21.0005C45.4526 -21.0463 44.0051 -20.7253 42.649 -20.0528L1.67606 0.626768C-0.457156 1.69667 -2.04183 3.54606 -2.77321 5.82342C-3.51984 8.10077 -3.32175 10.5157 -2.23991 12.6555L45.1022 105.828C45.6355 106.898 46.3668 107.739 47.1287 108.396Z" fill="white"/>
</g>
</g>
<mask id="mask2_4304_3" style="mask-type:luminance" maskUnits="userSpaceOnUse" x="0" y="0" width="369" height="235">
<path d="M349.908 234.675H19.077C8.54809 234.675 0 226.1 0 215.539V19.9613C0 9.39991 8.54809 0.825439 19.077 0.825439H349.923C360.452 0.825439 369 9.39991 369 19.9613V215.539C368.985 226.1 360.452 234.675 349.908 234.675Z" fill="white"/>
</mask>
<g mask="url(#mask2_4304_3)">
<g opacity="0.15">
<path d="M164.349 145.094C164.455 145.338 164.562 145.567 164.638 145.781C164.943 146.53 166.025 146.484 166.208 145.69C166.238 145.598 166.253 145.491 166.268 145.399C169.712 125.056 176.097 86.8758 178.199 72.8143C180.561 57.1173 178.336 53.0823 178.032 52.6085L177.879 52.5015L177.894 52.4404C175.198 48.9708 168.905 52.4404 168.828 52.4709L130.507 76.9257L164.349 145.094Z" fill="white"/>
<path d="M161.377 146.683L138.72 100.372L127.779 77.8582C116.61 112.89 113.548 176.808 113.548 176.808C115.696 177.527 117.997 177.557 120.023 176.472L120.176 176.396L157.888 155.701C160.189 154.417 161.987 151.926 161.987 149.052C161.987 149.052 161.956 147.753 161.377 146.683Z" fill="white"/>
<path d="M110.592 175.28C110.592 175.28 112.847 108.916 125.966 74.1441L117.631 57.0104C116.641 54.9776 114.919 53.4492 112.801 52.7308C112.009 52.4557 111.201 52.3181 110.394 52.2876C109.022 52.2417 107.651 52.5474 106.401 53.1893L67.9427 72.8449C65.9466 73.8689 64.4534 75.6113 63.7677 77.7817C63.0668 79.9368 63.2497 82.2447 64.2705 84.2775L108.687 172.835C109.19 173.859 109.876 174.653 110.592 175.28Z" fill="white"/>
</g>
</g>
<mask id="mask3_4304_3" style="mask-type:luminance" maskUnits="userSpaceOnUse" x="0" y="0" width="369" height="235">
<path d="M349.908 234.675H19.077C8.54809 234.675 0 226.1 0 215.539V19.9613C0 9.39991 8.54809 0.825439 19.077 0.825439H349.923C360.452 0.825439 369 9.39991 369 19.9613V215.539C368.985 226.1 360.452 234.675 349.908 234.675Z" fill="white"/>
</mask>
<g mask="url(#mask3_4304_3)">
<g opacity="0.31">
<path d="M96.8479 212.696C96.985 213.002 97.1069 213.307 97.2288 213.567C97.6097 214.515 98.9963 214.454 99.2553 213.46C99.2858 213.338 99.3163 213.215 99.3315 213.093C103.735 187.37 111.917 139.056 114.614 121.265C117.647 101.396 114.797 96.2909 114.401 95.6948L114.203 95.5573L114.234 95.4809C110.79 91.0943 102.699 95.4809 102.623 95.5267L53.4979 126.462L96.8479 212.696Z" fill="white"/>
<path d="M93.0537 214.698L64.0116 156.113L49.9781 127.639C35.6703 171.948 31.7391 252.832 31.7391 252.832C34.4971 253.734 37.4531 253.78 40.0434 252.404L40.2263 252.297L88.5588 226.115C91.5148 224.48 93.8004 221.331 93.8004 217.709C93.8156 217.694 93.8004 216.058 93.0537 214.698Z" fill="white"/>
<path d="M27.9603 250.876C27.9603 250.876 30.8401 166.919 47.662 122.931L36.9807 101.243C35.716 98.66 33.5067 96.7342 30.7792 95.8171C29.7735 95.4809 28.7374 95.2974 27.7013 95.2669C25.949 95.2057 24.1967 95.6031 22.5816 96.4132L-26.7261 121.281C-29.286 122.565 -31.1906 124.781 -32.0896 127.517C-32.9886 130.253 -32.7601 133.172 -31.4497 135.724L25.4919 247.773C26.1471 249.088 27.0461 250.096 27.9603 250.876Z" fill="white"/>
</g>
</g>
<path d="M335.884 216.798C335.498 216.947 334.725 217.169 333.822 217.169C332.811 217.169 331.98 216.911 331.324 216.278C330.749 215.717 330.394 214.821 330.394 213.772C330.394 211.764 331.773 210.299 334.015 210.299C334.788 210.299 335.403 210.471 335.691 210.606L335.475 211.316C335.12 211.145 334.671 211.027 333.997 211.027C332.371 211.027 331.311 212.045 331.311 213.731C331.311 215.418 332.321 216.445 333.889 216.445C334.455 216.445 334.842 216.364 335.039 216.264V214.256H333.692V213.56H335.893V216.793L335.884 216.798Z" fill="white"/>
<path d="M341.81 214.641C341.81 216.427 340.57 217.205 339.42 217.205C338.13 217.205 337.12 216.246 337.12 214.717C337.12 213.107 338.18 212.162 339.501 212.162C340.822 212.162 341.81 213.171 341.81 214.636V214.641ZM338.014 214.69C338.014 215.749 338.607 216.545 339.46 216.545C340.314 216.545 340.92 215.758 340.92 214.668C340.92 213.849 340.512 212.822 339.483 212.822C338.454 212.822 338.014 213.781 338.014 214.69Z" fill="white"/>
<path d="M343.158 210.005H344.029V217.092H343.158V210.005Z" fill="white"/>
<path d="M349.883 210.005V215.844C349.883 216.273 349.901 216.762 349.924 217.092H349.151L349.111 216.255H349.079C348.823 216.793 348.248 217.205 347.462 217.205C346.303 217.205 345.4 216.214 345.4 214.749C345.391 213.144 346.393 212.162 347.552 212.162C348.297 212.162 348.783 212.51 348.998 212.89H349.016V210.005H349.879H349.883ZM349.021 214.229C349.021 214.12 349.012 213.971 348.98 213.858C348.85 213.311 348.374 212.85 347.718 212.85C346.815 212.85 346.28 213.65 346.28 214.708C346.28 215.685 346.765 216.495 347.7 216.495C348.284 216.495 348.819 216.097 348.98 215.446C349.012 215.328 349.021 215.206 349.021 215.066V214.229Z" fill="white"/>
<path d="M311.287 185.818L303.114 205.446H297.782L293.761 189.784C293.514 188.821 293.302 188.468 292.561 188.061C291.348 187.396 289.344 186.777 287.583 186.388L287.705 185.818H296.286C297.382 185.818 298.361 186.551 298.613 187.817L300.738 199.178L305.985 185.818H311.287ZM332.182 199.038C332.205 193.855 325.066 193.57 325.115 191.259C325.129 190.553 325.798 189.807 327.254 189.612C327.977 189.517 329.967 189.445 332.232 190.49L333.117 186.329C331.904 185.886 330.34 185.456 328.399 185.456C323.412 185.456 319.904 188.124 319.877 191.946C319.845 194.773 322.384 196.347 324.293 197.287C326.256 198.251 326.917 198.866 326.908 199.725C326.894 201.041 325.34 201.624 323.889 201.647C321.35 201.688 319.881 200.96 318.704 200.408L317.792 204.709C318.969 205.256 321.144 205.726 323.403 205.754C328.7 205.754 332.169 203.117 332.187 199.038M345.35 205.446H350.018L345.943 185.818H341.635C340.669 185.818 339.851 186.383 339.487 187.256L331.922 205.446H337.218L338.27 202.515H344.739L345.346 205.446H345.35ZM339.721 198.49L342.376 191.118L343.904 198.49H339.721ZM318.493 185.818L314.324 205.446H309.278L313.452 185.818H318.497H318.493Z" fill="white"/>
</g>
<path d="M262.906 29.9459C262.906 29.3458 263.401 28.8506 264.001 28.8506H276.74C282.337 28.8506 286.133 30.6661 286.133 36.1428C286.133 39.0237 284.692 41.0494 282.142 42.2797C285.728 43.3151 287.528 46.0759 287.528 49.737C287.528 55.7089 282.457 58.2596 277.145 58.2596H263.986C263.386 58.2596 262.891 57.7645 262.891 57.1643V29.9459H262.906ZM269.373 40.2691C269.373 40.5242 269.583 40.7493 269.853 40.7493H275.93C278.195 40.7493 279.876 39.7139 279.876 37.2532C279.876 34.4473 277.73 33.8771 275.434 33.8771H270.123C269.718 33.8771 269.373 34.2072 269.373 34.6274V40.2691ZM269.373 52.738C269.373 52.993 269.583 53.2181 269.853 53.2181H276.29C278.841 53.2181 281.061 52.3928 281.061 49.3469C281.061 46.346 279.171 45.1456 276.41 45.1456H269.853C269.598 45.1456 269.373 45.3557 269.373 45.6258V52.738Z" fill="white"/>
<path d="M290.994 30.111C290.994 29.4058 291.564 28.8356 292.27 28.8356H303.673C311.296 28.8356 317.012 33.607 317.012 43.375C317.012 51.8977 312.646 58.2446 303.673 58.2446H292.12C291.504 58.2446 290.994 57.7345 290.994 57.1193V30.111ZM297.461 52.0627C297.461 52.4678 297.791 52.7979 298.197 52.7979H303.223C306.974 52.7979 310.545 50.4872 310.545 43.9902C310.545 38.0634 308.49 34.2672 302.068 34.2672H298.197C297.791 34.2672 297.461 34.5973 297.461 35.0025V52.0627Z" fill="white"/>
<path d="M334.328 58.2446H328.701C328.206 58.2446 327.756 57.9295 327.606 57.4494L318.798 30.351C318.558 29.6008 319.113 28.8356 319.893 28.8356H324.185C324.665 28.8356 325.07 29.1357 325.22 29.5858L331.522 49.4969H331.597L337.989 29.5858C338.139 29.1357 338.544 28.8356 339.024 28.8356H343.301C344.081 28.8356 344.636 29.6008 344.396 30.351L335.408 57.4494C335.273 57.9295 334.823 58.2446 334.328 58.2446Z" fill="white"/>
<path d="M257.309 26.585L257.144 26.3149C256.394 25.3546 254.938 25.6547 253.873 26.2099L242.784 33.172L242.379 32.3618L240.069 27.6953C239.723 27.0051 239.123 26.4799 238.388 26.2249C238.118 26.1348 237.833 26.0898 237.548 26.0748C237.068 26.0598 236.588 26.1649 236.167 26.3899L225.244 31.8816C224.554 32.2267 224.029 32.8269 223.789 33.5621C223.548 34.2974 223.609 35.0926 223.954 35.7828L236.542 60.4654C236.603 60.5704 236.753 60.7955 236.813 60.9005C236.948 61.0956 237.068 61.2156 237.218 61.3507C237.233 61.3507 238.418 62.6861 240.549 61.7558C240.549 61.7558 248.921 57.2244 251.262 55.964C253.603 54.7036 253.903 52.663 253.918 52.618C254.893 46.9313 256.709 36.338 257.309 32.4218C257.909 28.6256 257.549 27.1252 257.309 26.585Z" fill="white"/>
<path d="M252.868 52.543C252.898 52.618 252.928 52.678 252.958 52.738C253.048 52.9481 253.348 52.9331 253.408 52.708C253.408 52.678 253.423 52.648 253.423 52.633C254.398 46.9462 256.214 36.278 256.814 32.3467C257.489 27.9654 256.859 26.8251 256.769 26.69L256.724 26.645C255.959 25.6697 254.173 26.645 254.143 26.66L243.265 33.4871L252.868 52.543Z" fill="#DB0032" stroke="white" stroke-width="0.2835" stroke-miterlimit="10"/>
<path d="M252.027 52.9781L245.59 40.0291L242.484 33.7422C239.318 43.5402 238.448 61.3957 238.448 61.3957C239.063 61.5907 239.709 61.6058 240.294 61.3057L240.339 61.2907L251.052 55.4989C251.712 55.1388 252.222 54.4485 252.222 53.6383C252.207 53.6383 252.192 53.2782 252.027 52.9781Z" fill="#0067B2" stroke="white" stroke-width="0.2835" stroke-miterlimit="10"/>
<path d="M237.608 60.9756C237.608 60.9756 238.253 42.4299 241.974 32.7069L239.604 27.9204C239.318 27.3502 238.838 26.9301 238.223 26.72C237.998 26.645 237.773 26.6 237.548 26.6C237.158 26.585 236.768 26.675 236.408 26.8551L225.484 32.3468C224.914 32.6319 224.494 33.127 224.299 33.7272C224.104 34.3274 224.149 34.9726 224.434 35.5428L237.053 60.3004C237.203 60.5855 237.398 60.7955 237.608 60.9756Z" fill="#FEC800" stroke="white" stroke-width="0.2835" stroke-miterlimit="10" stroke-linejoin="round"/>
<defs>
<linearGradient id="paint0_linear_4304_3" x1="-14.125" y1="116.094" x2="379.961" y2="116.094" gradientUnits="userSpaceOnUse">
<stop stop-color="white"/>
<stop offset="0.00359511" stop-color="#FEFDFC"/>
<stop offset="0.00369511" stop-color="#FFE7B7"/>
<stop offset="0.00379511" stop-color="#C1B187"/>
<stop offset="0.175" stop-color="#ECD289"/>
<stop offset="0.26" stop-color="#CAB377"/>
<stop offset="0.305" stop-color="#CEBA7E"/>
<stop offset="0.45" stop-color="#B8A676"/>
<stop offset="0.5892" stop-color="#AE9A64"/>
<stop offset="0.8" stop-color="#B29F6B"/>
<stop offset="1" stop-color="#AD9962"/>
</linearGradient>
</defs>
</svg>
